<svg xmlns="http://www.w3.org/2000/svg" viewBox="0 0 403.99 93.93"><path d="M122.17,65c-4,0-7.48-.07-10.35-.21a58.45,58.45,0,0,1-7.28-.76,17.68,17.68,0,0,1-4.77-1.45A7.31,7.31,0,0,1,97,60.29a7.51,7.51,0,0,1-1.27-3.2,27.25,27.25,0,0,1-.3-4.32V51.26H110v.84a2.79,2.79,0,0,0,.37,1.51,2.55,2.55,0,0,0,1.54,1,16,16,0,0,0,3.41.51q2.23.15,5.92.15h1.69q4.11,0,6.43-.15a16.35,16.35,0,0,0,3.5-.51,2.1,2.1,0,0,0,1.45-1,3.9,3.9,0,0,0,.27-1.54v-.36a3.12,3.12,0,0,0-.33-1.51,2.67,2.67,0,0,0-1.6-1,17.13,17.13,0,0,0-3.77-.54q-2.5-.15-6.86-.15c-3.94,0-7.35-.08-10.2-.24a55.77,55.77,0,0,1-7.19-.79A16.21,16.21,0,0,1,100,46a7.16,7.16,0,0,1-2.69-2.35A8.45,8.45,0,0,1,96,40.27a29.94,29.94,0,0,1-.3-4.53V35a16.36,16.36,0,0,1,.88-5.77A7.06,7.06,0,0,1,100,25.53a20.48,20.48,0,0,1,7.06-2,91.1,91.1,0,0,1,11.78-.61h2.54c3.86,0,7.19.08,10,.24a60.93,60.93,0,0,1,7,.76A15.88,15.88,0,0,1,143,25.35a7.41,7.41,0,0,1,2.66,2.23,7.7,7.7,0,0,1,1.24,3.14,25.8,25.8,0,0,1,.3,4.17v1H133.11v-.49a3.32,3.32,0,0,0-.25-1.33,2,2,0,0,0-1.2-.9,12.29,12.29,0,0,0-3-.54c-1.33-.13-3.14-.19-5.44-.19h-1.87q-4,0-6.37.12a16.16,16.16,0,0,0-3.51.49A2.42,2.42,0,0,0,110,34a3.22,3.22,0,0,0-.3,1.48v.37a3,3,0,0,0,.3,1.45,2.56,2.56,0,0,0,1.63.87,22.41,22.41,0,0,0,4,.45q2.72.13,7.55.13a119.89,119.89,0,0,1,13.11.57,22.67,22.67,0,0,1,7.67,2,7.06,7.06,0,0,1,3.59,3.84,18.4,18.4,0,0,1,.88,6.16v.84a18.51,18.51,0,0,1-.88,6.1,7.32,7.32,0,0,1-3.5,4,21.25,21.25,0,0,1-7.4,2.14,93.55,93.55,0,0,1-12.56.67Z" transform="translate(-3.32 -2.84)" fill="#273475"/><path d="M224.92,65H211V37.31h-.18L195.81,65h-11L170.14,37.31h-.3V65h-14V23.9h19.87l14.79,27.6h.18l14.68-27.6h19.51Z" transform="translate(-3.32 -2.84)" fill="#273475"/><path d="M260.2,65c-4.06,0-7.58-.1-10.53-.3a40.33,40.33,0,0,1-7.55-1.15,15.25,15.25,0,0,1-5.08-2.3,9.74,9.74,0,0,1-3-3.74,18,18,0,0,1-1.48-5.5,63.94,63.94,0,0,1-.39-7.61v-.9a65.5,65.5,0,0,1,.39-7.67A17.51,17.51,0,0,1,234,30.24a9.74,9.74,0,0,1,3.08-3.71,14.64,14.64,0,0,1,5.08-2.21,44.47,44.47,0,0,1,7.55-1.09q4.44-.3,10.47-.3h1.94a105.69,105.69,0,0,1,12.68.61,22.32,22.32,0,0,1,7.67,2.08,7.93,7.93,0,0,1,3.81,4,17.07,17.07,0,0,1,1,6.34v1.57H273v-.67a3.37,3.37,0,0,0-.39-1.66,2.84,2.84,0,0,0-1.57-1.11,13.74,13.74,0,0,0-3.45-.61q-2.27-.18-6-.18h-1.08q-4.89,0-7.73.3A8.71,8.71,0,0,0,248.61,35,4.63,4.63,0,0,0,246.86,38a33.56,33.56,0,0,0-.37,5.56v.48a35.28,35.28,0,0,0,.34,5.56,4.71,4.71,0,0,0,1.75,3.14,8.6,8.6,0,0,0,4.23,1.42,70.26,70.26,0,0,0,7.76.33h1.08q4.35,0,6.86-.24a13.28,13.28,0,0,0,3.77-.79,2.64,2.64,0,0,0,1.6-1.45,6.54,6.54,0,0,0,.34-2.23v-.49h-14.8V41.23h28.39v8.7a21.11,21.11,0,0,1-1.12,7.4,9,9,0,0,1-4,4.62,21.27,21.27,0,0,1-7.88,2.35,97.35,97.35,0,0,1-12.65.67Z" transform="translate(-3.32 -2.84)" fill="#273475"/><path d="M327.83,65h-14.5V34.59H295.39V23.9h50.37V34.59H327.83Z" transform="translate(-3.32 -2.84)" fill="#273475"/><path d="M407.3,65H392.81V49.45H367.38V65H352.89V23.9h14.49V38.51h25.43V23.9H407.3Z" transform="translate(-3.32 -2.84)" fill="#273475"/><path d="M20.5,16.79l1.13-.65a8.41,8.41,0,0,0-2.42,2.57,9.14,9.14,0,0,0-1,3.79v9.79c0,1.65,0,3.5,0,5.58s0,3.93,0,5.59v9.78a9,9,0,0,0,1.07,3.88A9.28,9.28,0,0,0,22.21,60l7.46,4.31c1.66.91,3.55,2,5.7,3.21s4,2.35,5.62,3.33l7.47,4.31a9.27,9.27,0,0,0,4.09,1.1,8.6,8.6,0,0,0,3.34-.81l-1.14.65c-1.53.89-2.91,1.7-4.16,2.45l-9.25,5.34a8.69,8.69,0,0,1-3.66,1,9.14,9.14,0,0,1-4.09-1.1l-7.47-4.31c-1.61-1-3.47-2.08-5.62-3.33s-4-2.29-5.7-3.2L7.34,68.61A9.3,9.3,0,0,1,4.39,65.7a8.9,8.9,0,0,1-1.07-3.87V52c0-1.65.05-3.5.05-5.58s0-3.93-.05-5.59V31.09a9.05,9.05,0,0,1,1-3.79A8.84,8.84,0,0,1,7,24.51l9.28-5.35c1.27-.71,2.66-1.49,4.18-2.37" transform="translate(-3.32 -2.84)" fill="#273475" fill-rule="evenodd"/><path d="M64.16,29.45A6.55,6.55,0,0,1,65.62,32a15.87,15.87,0,0,1,1.13,5l0,.22v8.94c0,2.14-.08,4.29-.08,6.43s0,4.28.08,6.43V68l0,.22c0,.37-.07.73-.11,1.09L68,68.54l2.27-1.31,7-4a9,9,0,0,0,2.66-2.7A9.31,9.31,0,0,0,81,56.41V47.79c0-1.89-.07-4-.07-6.54s0-4.64.07-6.53V26.1a9.31,9.31,0,0,0-1-4,9,9,0,0,0-2.82-2.86l-8.48-4.9c-1.45-.8-3.06-1.7-4.86-2.74S60.38,9.6,59,8.75l-8.47-4.9a9.23,9.23,0,0,0-3.8-1,9,9,0,0,0-3.76,1l-7,4L33.65,9.15l-1.29.77.76.34.23.1,8.72,5,0,0c1.56,1,3.14,1.88,4.72,2.79S50,20,51.62,20.91l0,0,8.73,5,.2.15a15.32,15.32,0,0,1,3.57,3.33" transform="translate(-3.32 -2.84)" fill="#273475" fill-rule="evenodd"/><path d="M9.86,22.93l-1.13.66a8.32,8.32,0,0,1,3.44-.81,9,9,0,0,1,3.79,1l8.47,4.89c1.42.85,3,1.8,4.81,2.84s3.42,1.94,4.87,2.75l8.47,4.89A8.86,8.86,0,0,1,45.4,42a9.35,9.35,0,0,1,1,4v8.62c0,1.89-.07,4.05-.07,6.54s0,4.64.07,6.53v8.62a9.14,9.14,0,0,1-1.09,4.09A8.44,8.44,0,0,1,43,82.92l1.12-.65c1.54-.89,2.93-1.68,4.21-2.39l2.27-1.31,7-4a8.87,8.87,0,0,0,2.65-2.7,9,9,0,0,0,1.09-4.09V59.14c0-1.89-.07-4-.07-6.54s0-4.65.07-6.54V37.44a9.26,9.26,0,0,0-1-4,9,9,0,0,0-2.82-2.87L49,25.68c-1.45-.8-3.07-1.71-4.87-2.75s-3.39-2-4.81-2.84L30.83,15.2a9.15,9.15,0,0,0-3.79-1,8.8,8.8,0,0,0-3.76,1l-7,4L14,20.5c-1.25.75-2.62,1.56-4.14,2.43" transform="translate(-3.32 -2.84)" fill="#f9a11b" fill-rule="evenodd"/><path d="M105.54,92.83a4.59,4.59,0,0,1-.24.81,6.76,6.76,0,0,1-.33.66,9.08,9.08,0,0,1-.57.81,4.41,4.41,0,0,1-1,.85,4.74,4.74,0,0,1-1.29.59,5.73,5.73,0,0,1-1.63.23,4.78,4.78,0,0,1-3.37-1.23,6.14,6.14,0,0,1-.22-8,4.91,4.91,0,0,1,3.77-1.47,4.65,4.65,0,0,1,3.74,1.52,5.46,5.46,0,0,1,.89,1.59l-1.37.28a3.5,3.5,0,0,0-.46-1,3.25,3.25,0,0,0-2.82-1.36,3.83,3.83,0,0,0-1.48.29,3.15,3.15,0,0,0-1,.71,3.8,3.8,0,0,0-.64.88,4,4,0,0,0-.32,1,5.29,5.29,0,0,0-.13.8c0,.17,0,.35,0,.54A4.8,4.8,0,0,0,97.7,94a3.38,3.38,0,0,0,1.52,1.36,4.12,4.12,0,0,0,1.49.26,3.63,3.63,0,0,0,1-.13,3.45,3.45,0,0,0,1-.5,2.84,2.84,0,0,0,.92-1.06,4.78,4.78,0,0,0,.41-1.29Z" transform="translate(-3.32 -2.84)" fill="#818181"/><path d="M123.58,91.35a5.79,5.79,0,0,1-1.06,3.54,4.8,4.8,0,0,1-4.09,1.89,4.94,4.94,0,0,1-3.5-1.3,5.27,5.27,0,0,1-1.58-4.06,5.43,5.43,0,0,1,1.26-3.73,4.7,4.7,0,0,1,1.73-1.19,5.72,5.72,0,0,1,2.13-.41,5.61,5.61,0,0,1,2,.36,4.59,4.59,0,0,1,2.31,1.9A5.78,5.78,0,0,1,123.58,91.35Zm-1.47,0a4.64,4.64,0,0,0-.79-2.82,3.68,3.68,0,0,0-5.73.06,4.85,4.85,0,0,0-.78,2.85,5.09,5.09,0,0,0,.68,2.69,3.81,3.81,0,0,0,.65.76,3.09,3.09,0,0,0,1,.59,4,4,0,0,0,1.38.23,3.74,3.74,0,0,0,1.54-.3,3.52,3.52,0,0,0,1.48-1.4A5,5,0,0,0,122.11,91.35Z" transform="translate(-3.32 -2.84)" fill="#818181"/><path d="M140.12,96.52H138.9l-5.57-8.27.13,8.27h-1.28V86.35h1.28L139,94.5l-.06-8.15h1.22Z" transform="translate(-3.32 -2.84)" fill="#818181"/><path d="M156.89,93.59a2.81,2.81,0,0,1-.84,2.09,4.43,4.43,0,0,1-3.22,1.1,5,5,0,0,1-2.77-.71,3,3,0,0,1-.82-.76,3.94,3.94,0,0,1-.71-2l1.45-.18a2.71,2.71,0,0,0,.7,1.82,2.93,2.93,0,0,0,2.23.81,3.71,3.71,0,0,0,.93-.11,1.88,1.88,0,0,0,1.6-1.92,1.38,1.38,0,0,0-.52-1.15,3.6,3.6,0,0,0-1.41-.53l-.88-.19a8.43,8.43,0,0,1-2.23-.71A2.35,2.35,0,0,1,149,88.92a2.5,2.5,0,0,1,1-2,4.14,4.14,0,0,1,2.73-.84,4.37,4.37,0,0,1,2.72.77,3.29,3.29,0,0,1,.82.9,4.39,4.39,0,0,1,.47,1.46l-1.37.08a3.41,3.41,0,0,0-.1-.6,2.05,2.05,0,0,0-.78-1.1,2.87,2.87,0,0,0-1.74-.45,2.45,2.45,0,0,0-2,.67,1.34,1.34,0,0,0-.34.92,1.24,1.24,0,0,0,.24.75l.13.15.14.13.18.11.17.09a.67.67,0,0,0,.19.09l.19.07.21.05.19,0,.2,0,.17,0,1.12.27.8.2a3.24,3.24,0,0,1,2.17,1.38A2.75,2.75,0,0,1,156.89,93.59Z" transform="translate(-3.32 -2.84)" fill="#818181"/><path d="M172,87.53h-3v9h-1.36v-9h-3.05V86.35H172Z" transform="translate(-3.32 -2.84)" fill="#818181"/><path d="M188.36,96.52h-1.61L184,92.2h-2.62v4.32H180V86.35h4.75a3.24,3.24,0,0,1,2.5,1,2.88,2.88,0,0,1,.62,1.94,2.52,2.52,0,0,1-1.35,2.46,3.18,3.18,0,0,1-1,.33Zm-1.8-7.2a1.69,1.69,0,0,0-.8-1.56,2.17,2.17,0,0,0-.61-.21,2.77,2.77,0,0,0-.51-.07h-3.29v3.58h2.71l.83,0a2.4,2.4,0,0,0,.7-.18,1.55,1.55,0,0,0,.66-.49A1.74,1.74,0,0,0,186.56,89.32Z" transform="translate(-3.32 -2.84)" fill="#818181"/><path d="M204.06,92.85A5.86,5.86,0,0,1,204,94a3.14,3.14,0,0,1-1.48,2.13,4.9,4.9,0,0,1-4,.34,3.25,3.25,0,0,1-2-2.06,7.08,7.08,0,0,1-.15-1.8V86.35h1.36v6.11a10,10,0,0,0,0,1.18,2.28,2.28,0,0,0,.66,1.39,2,2,0,0,0,.85.49,3.18,3.18,0,0,0,.88.1,2.68,2.68,0,0,0,1.51-.4,1.83,1.83,0,0,0,.71-.8,3,3,0,0,0,.29-.91c0-.27,0-.63,0-1.08V86.35h1.37Z" transform="translate(-3.32 -2.84)" fill="#818181"/><path d="M214.25,96.52h-1.37V86.35h1.37Z" transform="translate(-3.32 -2.84)" fill="#818181"/><path d="M230.86,93.59a2.78,2.78,0,0,1-.85,2.09,4.42,4.42,0,0,1-3.21,1.1,5.05,5.05,0,0,1-2.78-.71,3.11,3.11,0,0,1-.82-.76,3.94,3.94,0,0,1-.7-2l1.45-.18a2.75,2.75,0,0,0,.69,1.82,3,3,0,0,0,2.23.81,3.73,3.73,0,0,0,.94-.11,1.88,1.88,0,0,0,1.6-1.92,1.38,1.38,0,0,0-.52-1.15,3.6,3.6,0,0,0-1.41-.53l-.88-.19a8.3,8.3,0,0,1-2.23-.71A2.35,2.35,0,0,1,223,88.92a2.5,2.5,0,0,1,1-2,4.11,4.11,0,0,1,2.72-.84,4.35,4.35,0,0,1,2.72.77,3,3,0,0,1,.82.9,4.38,4.38,0,0,1,.48,1.46l-1.37.08a3.41,3.41,0,0,0-.1-.6,2.11,2.11,0,0,0-.78-1.1,2.87,2.87,0,0,0-1.74-.45,2.44,2.44,0,0,0-2,.67,1.35,1.35,0,0,0-.35.92,1.19,1.19,0,0,0,.25.75l.13.15a1.59,1.59,0,0,1,.13.13l.18.11.18.09a.67.67,0,0,0,.19.09l.19.07.21.05.18,0,.21,0,.17,0,1.12.27.79.2a3.27,3.27,0,0,1,2.18,1.38A2.75,2.75,0,0,1,230.86,93.59Z" transform="translate(-3.32 -2.84)" fill="#818181"/><path d="M249.29,91.35a5.79,5.79,0,0,1-1.07,3.54,4.78,4.78,0,0,1-4.09,1.89,4.91,4.91,0,0,1-3.49-1.3,5.28,5.28,0,0,1-1.59-4.06,5.44,5.44,0,0,1,1.27-3.73,4.7,4.7,0,0,1,1.73-1.19,5.72,5.72,0,0,1,2.13-.41,5.52,5.52,0,0,1,2,.36,4.51,4.51,0,0,1,2.31,1.9A5.7,5.7,0,0,1,249.29,91.35Zm-1.47,0a4.64,4.64,0,0,0-.79-2.82,3.68,3.68,0,0,0-5.73.06,4.85,4.85,0,0,0-.78,2.85,5.09,5.09,0,0,0,.68,2.69,3.81,3.81,0,0,0,.65.76,3,3,0,0,0,1,.59,4.09,4.09,0,0,0,1.39.23,3.78,3.78,0,0,0,1.54-.3,3.5,3.5,0,0,0,1.47-1.4A4.92,4.92,0,0,0,247.82,91.35Z" transform="translate(-3.32 -2.84)" fill="#818181"/><path d="M265.83,96.52h-1.22L259,88.25l.13,8.27h-1.28V86.35h1.28l5.5,8.15-.05-8.15h1.22Z" transform="translate(-3.32 -2.84)" fill="#818181"/><path d="M282.6,93.59a2.78,2.78,0,0,1-.85,2.09,4.42,4.42,0,0,1-3.21,1.1,5.05,5.05,0,0,1-2.78-.71,3.11,3.11,0,0,1-.82-.76,3.94,3.94,0,0,1-.7-2l1.45-.18a2.75,2.75,0,0,0,.69,1.82,3,3,0,0,0,2.23.81,3.73,3.73,0,0,0,.94-.11,1.88,1.88,0,0,0,1.6-1.92,1.41,1.41,0,0,0-.52-1.15,3.6,3.6,0,0,0-1.41-.53l-.88-.19a8.3,8.3,0,0,1-2.23-.71,2.35,2.35,0,0,1-1.38-2.18,2.5,2.5,0,0,1,1-2,4.11,4.11,0,0,1,2.72-.84,4.35,4.35,0,0,1,2.72.77,3,3,0,0,1,.82.9,4.62,4.62,0,0,1,.48,1.46l-1.37.08a3.41,3.41,0,0,0-.1-.6,2.11,2.11,0,0,0-.78-1.1,2.87,2.87,0,0,0-1.74-.45,2.44,2.44,0,0,0-2,.67,1.35,1.35,0,0,0-.35.92,1.19,1.19,0,0,0,.25.75l.13.15a1.59,1.59,0,0,1,.13.13l.18.11L277,90a.67.67,0,0,0,.19.09l.19.07.21.05.18,0,.21,0,.17,0,1.12.27.79.2a3.27,3.27,0,0,1,2.18,1.38A2.75,2.75,0,0,1,282.6,93.59Z" transform="translate(-3.32 -2.84)" fill="#818181"/><path d="M308,96.52h-6.28V86.35H303v9H308Z" transform="translate(-3.32 -2.84)" fill="#818181"/><path d="M316.88,85.82l-.4,4.23H316l-.41-4.23Z" transform="translate(-3.32 -2.84)" fill="#818181"/><path d="M333.39,96.52H332l-1.11-3.11H327l-1.13,3.11h-1.44l3.87-10.17h1.41Zm-2.94-4.25L329,88l-1.55,4.25Z" transform="translate(-3.32 -2.84)" fill="#818181"/><path d="M348.26,86.35l-3.58,10.17h-1.34L339.9,86.35h1.44l2.69,8.5,2.79-8.5Z" transform="translate(-3.32 -2.84)" fill="#818181"/><path d="M363.49,96.52h-7.17V86.35h7v1.2h-5.7v3.14h4.95v1.18h-4.95v3.47h5.87Z" transform="translate(-3.32 -2.84)" fill="#818181"/><path d="M379.7,96.52h-1.22l-5.57-8.27.13,8.27h-1.28V86.35H373l5.5,8.15-.06-8.15h1.22Z" transform="translate(-3.32 -2.84)" fill="#818181"/><path d="M389.91,96.52h-1.37V86.35h1.37Z" transform="translate(-3.32 -2.84)" fill="#818181"/><path d="M407.08,96.52h-1.61l-2.78-4.32h-2.62v4.32h-1.32V86.35h4.75a3.24,3.24,0,0,1,2.5,1,2.88,2.88,0,0,1,.62,1.94,2.52,2.52,0,0,1-1.35,2.46,3.18,3.18,0,0,1-1,.33Zm-1.79-7.2a1.69,1.69,0,0,0-.81-1.56,2.17,2.17,0,0,0-.61-.21,2.77,2.77,0,0,0-.51-.07h-3.29v3.58h2.71l.83,0a2.32,2.32,0,0,0,.7-.18,1.49,1.49,0,0,0,.66-.49A1.74,1.74,0,0,0,405.29,89.32Z" transform="translate(-3.32 -2.84)" fill="#818181"/><line x1="92.26" y1="73.37" x2="403.73" y2="73.37" fill="none" stroke="#f9a11b" stroke-miterlimit="10" stroke-width="2"/></svg>